<svg width="60" height="60" viewBox="0 0 60 60" fill="none" xmlns="http://www.w3.org/2000/svg">
<g opacity="0.69">
<path fill-rule="evenodd" clip-rule="evenodd" d="M11.341 51.841L19.682 43.5H45.75C49.4779 43.5 52.5 40.4779 52.5 36.75V14.25C52.5 10.5221 49.4779 7.5 45.75 7.5H14.25C10.5221 7.5 7.5 10.5221 7.5 14.25V50.25C7.5 52.2545 9.92357 53.2584 11.341 51.841ZM18.75 39C18.1533 39 17.581 39.2371 17.159 39.659L12 44.818V14.25C12 13.0074 13.0074 12 14.25 12H45.75C46.9926 12 48 13.0074 48 14.25V36.75C48 37.9926 46.9926 39 45.75 39H18.75Z" fill="#FBFCFC"/>
<mask id="mask0_239_239" style="mask-type:luminance" maskUnits="userSpaceOnUse" x="7" y="7" width="46" height="46">
<path fill-rule="evenodd" clip-rule="evenodd" d="M11.341 51.841L19.682 43.5H45.75C49.4779 43.5 52.5 40.4779 52.5 36.75V14.25C52.5 10.5221 49.4779 7.5 45.75 7.5H14.25C10.5221 7.5 7.5 10.5221 7.5 14.25V50.25C7.5 52.2545 9.92357 53.2584 11.341 51.841ZM18.75 39C18.1533 39 17.581 39.2371 17.159 39.659L12 44.818V14.25C12 13.0074 13.0074 12 14.25 12H45.75C46.9926 12 48 13.0074 48 14.25V36.75C48 37.9926 46.9926 39 45.75 39H18.75Z" fill="white"/>
</mask>
<g mask="url(#mask0_239_239)">
<rect y="-8.1084" width="60" height="60" fill="#FBFCFC"/>
</g>
</g>
</svg>
