<svg width="60.000000" height="60.000000" viewBox="0 0 60 60" fill="none" xmlns="http://www.w3.org/2000/svg" xmlns:xlink="http://www.w3.org/1999/xlink">
	<desc>
			Created with Pixso.
	</desc>
	<defs/>
	<path id="Vector" d="M20 10C21.38 10 22.5 11.12 22.5 12.5L22.5 47.5C22.5 48.88 21.38 50 20 50L15 50C13.61 50 12.5 48.88 12.5 47.5L12.5 12.5C12.5 11.12 13.61 10 15 10L20 10Z" stroke="#FBFCFC" stroke-opacity="1.000000" stroke-width="2.000000" stroke-linejoin="round"/>
	<path id="Vector" d="M30 10C31.38 10 32.5 11.12 32.5 12.5L32.5 47.5C32.5 48.88 31.38 50 30 50L25 50C23.61 50 22.5 48.88 22.5 47.5L22.5 12.5C22.5 11.12 23.61 10 25 10L30 10Z" stroke="#FBFCFC" stroke-opacity="1.000000" stroke-width="2.000000" stroke-linejoin="round"/>
	<path id="Vector" d="M12.5 20L22.5 " stroke="#FBFCFC" stroke-opacity="1.000000" stroke-width="2.000000" stroke-linejoin="round" stroke-linecap="round"/>
	<path id="Vector" d="M22.5 40L32.5 " stroke="#FBFCFC" stroke-opacity="1.000000" stroke-width="2.000000" stroke-linejoin="round" stroke-linecap="round"/>
	<path id="Vector" d="M39.96 10.07C41.37 9.73 42.8 10.54 43.17 11.9L52.41 45.44C52.57 46.06 52.5 46.71 52.2 47.27C51.91 47.84 51.42 48.27 50.82 48.49L50.49 48.59L45.03 49.92C43.62 50.26 42.2 49.44 41.82 48.09L32.59 14.54C32.42 13.93 32.5 13.28 32.79 12.71C33.08 12.15 33.57 11.71 34.17 11.5L34.5 11.39L39.96 10.07Z" stroke="#FBFCFC" stroke-opacity="1.000000" stroke-width="2.000000" stroke-linejoin="round"/>
	<path id="Vector" d="M35 22.5L45 " stroke="#FBFCFC" stroke-opacity="1.000000" stroke-width="2.000000" stroke-linejoin="round" stroke-linecap="round"/>
	<path id="Vector" d="M40 40L49.8 " stroke="#FBFCFC" stroke-opacity="1.000000" stroke-width="2.000000" stroke-linejoin="round" stroke-linecap="round"/>
</svg>
